# Blender v2.91.2 OBJ File: 'ground.blend'
# www.blender.org
mtllib ground.mtl
o Plane
v -8.204443 0.000000 8.204443
v 8.204443 0.541686 8.204443
v -8.204443 0.927631 -8.204443
v 8.204443 0.392622 -8.204443
v -5.469628 0.000000 8.204443
v -2.734814 0.000000 8.204443
v 0.000000 0.000000 8.204443
v 2.734815 0.589492 8.204443
v 5.469629 0.000000 8.204443
v 5.469628 0.000000 -8.204443
v 2.734814 0.644898 -8.204443
v -0.000000 0.000000 -8.204443
v -2.734815 0.000000 -8.204443
v -5.469629 0.000000 -8.204443
v -8.204443 0.000000 0.000000
v 8.204443 -0.342223 0.000000
v -5.469628 0.000000 0.000000
v -2.734814 0.000000 0.000000
v 0.000000 0.000000 0.000000
v 2.734814 0.000000 0.000000
v 5.469628 0.361035 0.000000
v 8.204443 0.000000 -4.102221
v -5.469628 0.000000 -4.102221
v -2.734814 0.632192 -4.102221
v -0.000000 0.000000 -4.102221
v 2.763623 0.400039 -4.875322
v 6.286685 0.000000 -3.498327
v -8.204443 0.000000 -4.102221
v -8.204443 0.000000 4.102221
v 8.204443 0.541683 4.102221
v -4.837769 0.000000 4.753163
v -2.734814 0.571690 4.102221
v 0.000000 0.000000 4.102221
v 2.734814 0.649653 4.102221
v 5.469628 0.000000 4.102221
v -8.204443 0.000000 -2.051111
v 8.204443 0.589343 -2.051111
v -6.080373 0.690795 -1.981142
v -1.849939 -0.000000 -1.587930
v -0.000000 0.000000 -2.051111
v 2.361030 -0.000000 -1.419418
v 5.469628 0.000000 -2.051111
v 8.204443 0.489871 2.051111
v -4.713208 0.714590 1.591039
v -1.895035 -0.000000 1.533662
v 0.000000 0.000000 2.051111
v 2.112765 0.000000 1.638494
v 5.469628 0.000000 2.051111
v -8.204443 0.000000 2.051111
v 8.204443 0.000000 -6.153332
v -4.948195 1.025052 -5.551280
v -2.734815 0.000000 -6.153332
v -0.000000 0.718904 -6.153332
v 2.734814 0.000000 -6.153332
v 5.469628 0.413626 -6.153332
v -8.204443 0.000000 -6.153332
v -8.204443 0.000000 6.153332
v 8.204443 0.000000 6.153332
v -5.469628 0.781580 6.153332
v -2.734814 0.000000 6.153332
v 0.000000 0.470950 6.153332
v 2.734815 0.000000 6.153332
v 5.469628 0.000000 6.153332
vt 0.833333 0.875000
vt 1.000000 0.875000
vt 1.000000 1.000000
vt 0.833333 1.000000
vt 0.000000 0.875000
vt 0.166667 0.875000
vt 0.166667 1.000000
vt 0.000000 1.000000
vt 0.333333 0.875000
vt 0.333333 1.000000
vt 0.500000 0.875000
vt 0.500000 1.000000
vt 0.666667 0.875000
vt 0.666667 1.000000
vt 0.666667 0.375000
vt 0.833333 0.375000
vt 0.833333 0.500000
vt 0.666667 0.500000
vt 0.500000 0.375000
vt 0.500000 0.500000
vt 0.333333 0.375000
vt 0.333333 0.500000
vt 0.166667 0.375000
vt 0.166667 0.500000
vt 0.000000 0.375000
vt 0.000000 0.500000
vt 1.000000 0.375000
vt 1.000000 0.500000
vt 0.666667 0.625000
vt 0.833333 0.625000
vt 0.833333 0.750000
vt 0.666667 0.750000
vt 0.500000 0.625000
vt 0.500000 0.750000
vt 0.333333 0.625000
vt 0.333333 0.750000
vt 0.166667 0.625000
vt 0.166667 0.750000
vt 0.000000 0.625000
vt 0.000000 0.750000
vt 1.000000 0.625000
vt 1.000000 0.750000
vt 0.833333 0.125000
vt 1.000000 0.125000
vt 1.000000 0.250000
vt 0.833333 0.250000
vt 0.000000 0.125000
vt 0.166667 0.125000
vt 0.166667 0.250000
vt 0.000000 0.250000
vt 0.333333 0.125000
vt 0.333333 0.250000
vt 0.500000 0.125000
vt 0.500000 0.250000
vt 0.666667 0.125000
vt 0.666667 0.250000
vt 0.666667 0.000000
vt 0.833333 0.000000
vt 0.500000 0.000000
vt 0.333333 0.000000
vt 0.166667 0.000000
vt 0.000000 0.000000
vt 1.000000 0.000000
vn 0.0038 1.0000 -0.0051
vn -0.0143 0.9997 -0.0191
vn 0.1709 0.9586 -0.2278
vn -0.1284 0.9768 -0.1712
vn 0.0135 0.9997 -0.0180
vn 0.0422 0.9975 0.0562
vn -0.0648 0.9942 0.0864
vn 0.0000 1.0000 0.0000
vn 0.1197 0.9528 -0.2791
vn -0.1245 0.9782 -0.1661
vn 0.0387 0.9927 -0.1140
vn 0.0495 0.9944 0.0934
vn -0.0758 0.9949 0.0667
vn 0.1465 0.9833 0.1078
vn 0.0092 0.9999 -0.0132
vn -0.1359 0.9740 -0.1812
vn -0.1484 0.9689 -0.1979
vn -0.0977 0.9867 0.1303
vn -0.0985 0.9665 -0.2369
vn 0.0360 0.9979 -0.0541
vn 0.0184 0.9995 0.0245
vn -0.0326 0.9985 0.0435
vn 0.1165 0.9810 0.1554
vn 0.0206 0.9903 0.1377
vn -0.1409 0.9720 0.1879
vn 0.0858 0.9769 0.1957
vn -0.0717 0.9928 -0.0956
vn -0.1853 0.9826 -0.0124
vn -0.1064 0.9855 0.1325
vn 0.0334 0.9990 0.0305
vn 0.1327 0.9863 -0.0979
vn -0.1420 0.9823 -0.1218
vn 0.1152 0.9808 -0.1570
vn -0.0031 1.0000 0.0041
vn 0.0709 0.9930 0.0945
vn -0.0158 0.9997 0.0211
vn 0.0936 0.9878 0.1248
vn -0.1877 0.9498 0.2502
vn 0.0974 0.9928 0.0703
vn 0.1061 0.9842 -0.1414
vn -0.0217 0.9993 -0.0289
vn -0.0852 0.9899 0.1136
vn 0.1390 0.9728 0.1853
vn -0.1390 0.9728 0.1853
vn -0.0977 0.9867 -0.1303
usemtl None
s off
f 55/1/1 50/2/1 4/3/1 10/4/1
f 56/5/2 51/6/2 14/7/2 3/8/2
f 51/6/3 52/9/3 13/10/3 14/7/3
f 52/9/4 53/11/4 12/12/4 13/10/4
f 53/11/5 54/13/5 11/14/5 12/12/5
f 54/13/6 55/1/6 10/4/6 11/14/6
f 47/15/7 48/16/7 21/17/7 20/18/7
f 46/19/8 47/15/8 20/18/8 19/20/8
f 45/21/8 46/19/8 19/20/8 18/22/8
f 44/23/9 45/21/9 18/22/9 17/24/9
f 49/25/10 44/23/10 17/24/10 15/26/10
f 48/16/11 43/27/11 16/28/11 21/17/11
f 41/29/12 42/30/12 27/31/12 26/32/12
f 40/33/13 41/29/13 26/32/13 25/34/13
f 39/35/14 40/33/14 25/34/14 24/36/14
f 38/37/15 39/35/15 24/36/15 23/38/15
f 36/39/16 38/37/16 23/38/16 28/40/16
f 42/30/17 37/41/17 22/42/17 27/31/17
f 63/43/18 58/44/18 30/45/18 35/46/18
f 57/47/19 59/48/19 31/49/19 29/50/19
f 59/48/20 60/51/20 32/52/20 31/49/20
f 60/51/21 61/53/21 33/54/21 32/52/21
f 61/53/22 62/55/22 34/56/22 33/54/22
f 62/55/23 63/43/23 35/46/23 34/56/23
f 21/17/24 16/28/24 37/41/24 42/30/24
f 15/26/25 17/24/25 38/37/25 36/39/25
f 17/24/26 18/22/26 39/35/26 38/37/26
f 18/22/8 19/20/8 40/33/8 39/35/8
f 19/20/8 20/18/8 41/29/8 40/33/8
f 20/18/27 21/17/27 42/30/27 41/29/27
f 35/46/28 30/45/28 43/27/28 48/16/28
f 29/50/29 31/49/29 44/23/29 49/25/29
f 31/49/30 32/52/30 45/21/30 44/23/30
f 32/52/31 33/54/31 46/19/31 45/21/31
f 33/54/32 34/56/32 47/15/32 46/19/32
f 34/56/33 35/46/33 48/16/33 47/15/33
f 26/32/34 27/31/34 55/1/34 54/13/34
f 25/34/35 26/32/35 54/13/35 53/11/35
f 24/36/36 25/34/36 53/11/36 52/9/36
f 23/38/37 24/36/37 52/9/37 51/6/37
f 28/40/38 23/38/38 51/6/38 56/5/38
f 27/31/39 22/42/39 50/2/39 55/1/39
f 8/57/40 9/58/40 63/43/40 62/55/40
f 7/59/41 8/57/41 62/55/41 61/53/41
f 6/60/42 7/59/42 61/53/42 60/51/42
f 5/61/43 6/60/43 60/51/43 59/48/43
f 1/62/44 5/61/44 59/48/44 57/47/44
f 9/58/45 2/63/45 58/44/45 63/43/45
